<mxfile host="app.diagrams.net" modified="2023-12-02T14:15:23.560Z" agent="Mozilla/5.0 (Windows NT 10.0; Win64; x64) AppleWebKit/537.36 (KHTML, like Gecko) Chrome/119.0.0.0 Safari/537.36 Edg/119.0.0.0" etag="W51Pwn9hjy0_a_syBxvQ" version="22.1.5" type="github">
  <diagram name="第 1 页" id="FRvKm5lwS4Rhhj2kBkGg">
    <mxGraphModel dx="1026" dy="471" grid="1" gridSize="10" guides="1" tooltips="1" connect="1" arrows="1" fold="1" page="1" pageScale="1" pageWidth="827" pageHeight="1169" math="0" shadow="0">
      <root>
        <mxCell id="0" />
        <mxCell id="1" parent="0" />
        <mxCell id="xQd1zLAD4g_vqcQ5N1h_-2" value="" style="rounded=0;whiteSpace=wrap;html=1;" parent="1" vertex="1">
          <mxGeometry x="140" y="90" width="390" height="420" as="geometry" />
        </mxCell>
        <mxCell id="qpZsGNjPDPIV_CRu0O-Y-4" style="edgeStyle=none;rounded=0;orthogonalLoop=1;jettySize=auto;html=1;exitX=1;exitY=0.3333333333333333;exitDx=0;exitDy=0;exitPerimeter=0;" edge="1" parent="1" source="xQd1zLAD4g_vqcQ5N1h_-1" target="xQd1zLAD4g_vqcQ5N1h_-27">
          <mxGeometry relative="1" as="geometry" />
        </mxCell>
        <mxCell id="qpZsGNjPDPIV_CRu0O-Y-6" style="edgeStyle=none;rounded=0;orthogonalLoop=1;jettySize=auto;html=1;exitX=1;exitY=0.3333333333333333;exitDx=0;exitDy=0;exitPerimeter=0;entryX=0;entryY=0.5;entryDx=0;entryDy=0;" edge="1" parent="1" source="xQd1zLAD4g_vqcQ5N1h_-1" target="qpZsGNjPDPIV_CRu0O-Y-5">
          <mxGeometry relative="1" as="geometry" />
        </mxCell>
        <mxCell id="xQd1zLAD4g_vqcQ5N1h_-1" value="系统管理员" style="shape=umlActor;verticalLabelPosition=bottom;verticalAlign=top;html=1;" parent="1" vertex="1">
          <mxGeometry x="40" y="280" width="30" height="60" as="geometry" />
        </mxCell>
        <mxCell id="xQd1zLAD4g_vqcQ5N1h_-26" value="接口GMRP使能/去使能" style="ellipse;whiteSpace=wrap;html=1;" parent="1" vertex="1">
          <mxGeometry x="324" y="140" width="136" height="40" as="geometry" />
        </mxCell>
        <mxCell id="qpZsGNjPDPIV_CRu0O-Y-10" style="edgeStyle=none;rounded=0;orthogonalLoop=1;jettySize=auto;html=1;exitX=1;exitY=0.5;exitDx=0;exitDy=0;" edge="1" parent="1" source="xQd1zLAD4g_vqcQ5N1h_-27" target="qpZsGNjPDPIV_CRu0O-Y-7">
          <mxGeometry relative="1" as="geometry" />
        </mxCell>
        <mxCell id="qpZsGNjPDPIV_CRu0O-Y-11" style="edgeStyle=none;rounded=0;orthogonalLoop=1;jettySize=auto;html=1;" edge="1" parent="1" source="xQd1zLAD4g_vqcQ5N1h_-27" target="qpZsGNjPDPIV_CRu0O-Y-8">
          <mxGeometry relative="1" as="geometry" />
        </mxCell>
        <mxCell id="xQd1zLAD4g_vqcQ5N1h_-27" value="接口配置管理" style="ellipse;whiteSpace=wrap;html=1;" parent="1" vertex="1">
          <mxGeometry x="190" y="210" width="90" height="40" as="geometry" />
        </mxCell>
        <mxCell id="xQd1zLAD4g_vqcQ5N1h_-28" value="接口激活/去激活" style="ellipse;whiteSpace=wrap;html=1;" parent="1" vertex="1">
          <mxGeometry x="340" y="300" width="100" height="40" as="geometry" />
        </mxCell>
        <mxCell id="xQd1zLAD4g_vqcQ5N1h_-29" value="接口定时器事件响应" style="ellipse;whiteSpace=wrap;html=1;" parent="1" vertex="1">
          <mxGeometry x="327" y="350" width="130" height="40" as="geometry" />
        </mxCell>
        <mxCell id="xQd1zLAD4g_vqcQ5N1h_-43" value="&lt;font style=&quot;font-size: 14px;&quot;&gt;&lt;b style=&quot;&quot;&gt;接口管理模块&lt;/b&gt;&lt;/font&gt;" style="text;html=1;strokeColor=none;fillColor=none;align=center;verticalAlign=middle;whiteSpace=wrap;rounded=0;" parent="1" vertex="1">
          <mxGeometry x="265" y="100" width="140" height="20" as="geometry" />
        </mxCell>
        <mxCell id="qpZsGNjPDPIV_CRu0O-Y-15" style="edgeStyle=none;rounded=0;orthogonalLoop=1;jettySize=auto;html=1;entryX=0;entryY=0.5;entryDx=0;entryDy=0;" edge="1" parent="1" source="qpZsGNjPDPIV_CRu0O-Y-5" target="xQd1zLAD4g_vqcQ5N1h_-28">
          <mxGeometry relative="1" as="geometry" />
        </mxCell>
        <mxCell id="qpZsGNjPDPIV_CRu0O-Y-16" style="edgeStyle=none;rounded=0;orthogonalLoop=1;jettySize=auto;html=1;" edge="1" parent="1" source="qpZsGNjPDPIV_CRu0O-Y-5" target="xQd1zLAD4g_vqcQ5N1h_-29">
          <mxGeometry relative="1" as="geometry" />
        </mxCell>
        <mxCell id="qpZsGNjPDPIV_CRu0O-Y-17" style="edgeStyle=none;rounded=0;orthogonalLoop=1;jettySize=auto;html=1;entryX=0;entryY=0.5;entryDx=0;entryDy=0;" edge="1" parent="1" source="qpZsGNjPDPIV_CRu0O-Y-5" target="qpZsGNjPDPIV_CRu0O-Y-12">
          <mxGeometry relative="1" as="geometry" />
        </mxCell>
        <mxCell id="qpZsGNjPDPIV_CRu0O-Y-18" style="edgeStyle=none;rounded=0;orthogonalLoop=1;jettySize=auto;html=1;entryX=0;entryY=0.5;entryDx=0;entryDy=0;" edge="1" parent="1" source="qpZsGNjPDPIV_CRu0O-Y-5" target="qpZsGNjPDPIV_CRu0O-Y-13">
          <mxGeometry relative="1" as="geometry" />
        </mxCell>
        <mxCell id="qpZsGNjPDPIV_CRu0O-Y-5" value="接口事件响应" style="ellipse;whiteSpace=wrap;html=1;" vertex="1" parent="1">
          <mxGeometry x="190" y="370" width="90" height="40" as="geometry" />
        </mxCell>
        <mxCell id="qpZsGNjPDPIV_CRu0O-Y-7" value="接口注册模式修改" style="ellipse;whiteSpace=wrap;html=1;" vertex="1" parent="1">
          <mxGeometry x="335.5" y="190" width="113" height="40" as="geometry" />
        </mxCell>
        <mxCell id="qpZsGNjPDPIV_CRu0O-Y-8" value="接口定时器配置" style="ellipse;whiteSpace=wrap;html=1;" vertex="1" parent="1">
          <mxGeometry x="335.5" y="240" width="113" height="40" as="geometry" />
        </mxCell>
        <mxCell id="qpZsGNjPDPIV_CRu0O-Y-9" style="edgeStyle=none;rounded=0;orthogonalLoop=1;jettySize=auto;html=1;entryX=0.066;entryY=0.7;entryDx=0;entryDy=0;entryPerimeter=0;" edge="1" parent="1" source="xQd1zLAD4g_vqcQ5N1h_-27" target="xQd1zLAD4g_vqcQ5N1h_-26">
          <mxGeometry relative="1" as="geometry" />
        </mxCell>
        <mxCell id="qpZsGNjPDPIV_CRu0O-Y-12" value="接口删除/创建" style="ellipse;whiteSpace=wrap;html=1;" vertex="1" parent="1">
          <mxGeometry x="327" y="400" width="130" height="40" as="geometry" />
        </mxCell>
        <mxCell id="qpZsGNjPDPIV_CRu0O-Y-13" value="接口加入/退出聚合接口" style="ellipse;whiteSpace=wrap;html=1;" vertex="1" parent="1">
          <mxGeometry x="320.5" y="450" width="143" height="40" as="geometry" />
        </mxCell>
      </root>
    </mxGraphModel>
  </diagram>
</mxfile>
